<?xml version="1.0" encoding="UTF-8" standalone="no"?>
<!DOCTYPE svg PUBLIC "-//W3C//DTD SVG 1.1//EN" "http://www.w3.org/Graphics/SVG/1.1/DTD/svg11.dtd">
<!-- 由 Microsoft Visio, SVG Export 生成 alto-architecture.svg 页-1 -->
<svg xmlns="http://www.w3.org/2000/svg" xmlns:xlink="http://www.w3.org/1999/xlink" xmlns:ev="http://www.w3.org/2001/xml-events"
		width="3.87578in" height="2.65089in" viewBox="0 0 279.056 190.864" xml:space="preserve" color-interpolation-filters="sRGB"
		class="st6">
	<style type="text/css">
	<![CDATA[
		.st1 {fill:#ffffff;stroke:#000000;stroke-linecap:round;stroke-linejoin:round;stroke-width:0.75}
		.st2 {fill:#000000;font-family:宋体;font-size:0.833336em}
		.st3 {fill:#ffffff;stroke:#000000;stroke-linecap:round;stroke-linejoin:round;stroke-width:0.24}
		.st4 {fill:none;stroke:none;stroke-linecap:round;stroke-linejoin:round;stroke-width:0.75}
		.st5 {font-size:1em}
		.st6 {fill:none;fill-rule:evenodd;font-size:12px;overflow:visible;stroke-linecap:square;stroke-miterlimit:3}
	]]>
	</style>

	<defs id="Patterns_And_Gradients">
		<linearGradient id="grad0-11" x1="0" y1="0" x2="1" y2="0" gradientTransform="rotate(90 0.5 0.5)">
			<stop offset="0.01" stop-color="#ffffff" stop-opacity="1"/>
			<stop offset="0.5" stop-color="#fefefe" stop-opacity="1"/>
			<stop offset="1" stop-color="#ffffff" stop-opacity="1"/>
		</linearGradient>
		<linearGradient id="grad0-15" x1="0" y1="0" x2="1" y2="0" gradientTransform="rotate(270 0.5 0.5)">
			<stop offset="0" stop-color="#fefefe" stop-opacity="1"/>
			<stop offset="1" stop-color="#ffffff" stop-opacity="1"/>
		</linearGradient>
	</defs>
	<g>
		<title>页-1</title>
		<g id="group24-1" transform="translate(0.375,-2.83465)">
			<title>普通</title>
			<g id="group25-2">
				<title>工作表.25</title>
				<g id="shape26-3" transform="translate(2.83465,2.83465)">
					<title>工作表.26</title>
				</g>
				<g id="shape25-5">
					<path d="M0 190.86 L137.92 190.86 L275.85 190.86 L275.85 119.77 L137.92 119.77 L0 119.77 L0 190.86 Z"
							class="st1"/>
				</g>
			</g>
			<g id="group27-7" transform="translate(0,-45.5829)">
				<title>工作表.27</title>
				<desc>OpenDaylight Data Store</desc>
				<g id="shape28-8">
					<title>工作表.28</title>
				</g>
				<g id="shape27-12">
					<text x="6" y="181.71" class="st2">OpenDaylight Data Store</text>				</g>
			</g>
		</g>
		<g id="shape1-17" transform="translate(8.87894,-11.3386)">
			<title>矩形</title>
			<desc>Maps</desc>
			<rect x="0" y="162.289" width="92.126" height="28.5751" class="st3"/>
			<text x="36.06" y="179.58" class="st2">Maps</text>		</g>
		<g id="shape2-20" transform="translate(0.552165,215.673) scale(1,-1)">
			<title>L 形状</title>
			<path d="M0 190.86 L205.51 190.86 L205.51 162.52 L53.15 162.52 L53.15 106.05 L0 106.05 L0 190.86 Z" class="st3"/>
		</g>
		<g id="shape3-22" transform="translate(57.9537,-105.591)">
			<title>矩形.3</title>
			<desc>ALTO-Provider</desc>
			<rect x="0" y="162.289" width="148.11" height="28.5751" class="st3"/>
			<text x="41.55" y="179.58" class="st2">ALTO-Provider</text>		</g>
		<g id="shape4-25" transform="translate(0.552165,-169.713)">
			<title>矩形.4</title>
			<desc>ALTO-Northbound</desc>
			<rect x="0" y="169.833" width="205.512" height="21.0312" class="st3"/>
			<text x="65.25" y="183.35" class="st2">ALTO-Northbound</text>		</g>
		<g id="shape5-28" transform="translate(57.2451,-141.11)">
			<title>工作表.5</title>
			<desc>ALTO-Service</desc>
			<rect x="0" y="173.006" width="92.126" height="17.8583" class="st4"/>
			<text x="16.06" y="184.94" class="st2">ALTO-Service</text>		</g>
		<g id="shape6-31" transform="translate(211.379,-81.2446)">
			<title>矩形.6</title>
			<desc>ALTO-Manager</desc>
			<rect x="0" y="106.053" width="63.7795" height="84.8108" class="st3"/>
			<text x="19.39" y="145.46" class="st2">ALTO-<tspan x="14.39" dy="1.2em" class="st5">Manager</tspan></text>		</g>
		<g id="shape7-35" transform="translate(211.379,-169.713)">
			<title>矩形.7</title>
			<desc>Karaf-CLI</desc>
			<rect x="0" y="169.833" width="63.7795" height="21.0312" class="st3"/>
			<text x="9.39" y="183.35" class="st2">Karaf-CLI</text>		</g>
		<g id="shape8-38" transform="translate(0.552165,-88.1026)">
			<title>工作表.8</title>
			<desc>Simple-Service</desc>
			<rect x="0" y="162.289" width="56.6929" height="28.5751" class="st4"/>
			<text x="10.85" y="173.58" class="st2">Simple-<tspan x="10.85" dy="1.2em" class="st5">Service</tspan></text>		</g>
		<g id="shape17-42" transform="translate(57.9537,-81.2446)">
			<title>矩形.17</title>
			<desc>HostTracker</desc>
			<rect x="0" y="169.833" width="80.7874" height="21.0312" class="st3"/>
			<text x="12.89" y="183.35" class="st2">HostTracker</text>		</g>
		<g id="shape18-45" transform="translate(142.284,-81.2446)">
			<title>矩形.18</title>
			<desc>Network</desc>
			<rect x="0" y="169.833" width="63.7795" height="21.0312" class="st3"/>
			<text x="14.39" y="183.35" class="st2">Network</text>		</g>
		<g id="shape30-48" transform="translate(110.395,-11.3386)">
			<title>矩形.30</title>
			<desc>Hosts</desc>
			<rect x="0" y="162.289" width="63.7795" height="28.5751" class="st3"/>
			<text x="19.39" y="179.58" class="st2">Hosts</text>		</g>
		<g id="shape47-51" transform="translate(183.564,-11.3386)">
			<title>矩形.47</title>
			<desc>Topology</desc>
			<rect x="0" y="162.289" width="80.7874" height="28.5751" class="st3"/>
			<text x="20.39" y="179.58" class="st2">Topology</text>		</g>
	</g>
</svg>
